<svg width="194" height="45" viewBox="0 0 194 45" fill="none" xmlns="http://www.w3.org/2000/svg">
<path d="M4.788 7.2C6.31867 7.528 9.73533 8.04733 15.038 8.758C20.204 9.44133 23.7573 10.2613 25.698 11.218C29.142 12.9127 30.864 15.7827 30.864 19.828C30.864 22.9713 30.4677 25.527 29.675 27.495C28.7183 29.8457 27.051 31.7863 24.673 33.317C22.9237 34.4377 18.8237 36.6653 12.373 40H4.788L4.255 35.736C4.091 34.3693 4.009 33.0437 4.009 31.759C4.009 30.857 3.968 29.5313 3.886 27.782C3.804 26.0053 3.763 24.666 3.763 23.764C3.763 22.3973 3.77667 21.3587 3.804 20.648L4.009 15.359C4.009 14.0743 4.091 12.7077 4.255 11.259C4.36433 10.3843 4.542 9.03133 4.788 7.2ZM9.544 12.694C9.544 13.6233 9.48933 14.949 9.38 16.671C9.24333 18.5023 9.175 19.828 9.175 20.648C9.093 22.3427 8.97 24.8983 8.806 28.315C8.75133 29.4083 8.77867 30.6793 8.888 32.128C8.91533 33.44 9.052 34.7657 9.298 36.105L14.874 34.957L22.664 29.586C23.812 28.5747 24.8643 25.322 25.821 19.828C25.821 18.4887 25.0557 17.409 23.525 16.589C22.5957 16.0697 20.9693 15.5367 18.646 14.99C16.35 14.416 14.8603 13.9513 14.177 13.596L9.544 12.694ZM40.1931 13.063C42.3524 13.063 44.3478 14.3203 46.1791 16.835C48.0104 19.3223 48.9261 22.1923 48.9261 25.445C48.9534 28.151 47.3954 30.4743 44.2521 32.415C41.4914 34.0823 38.6761 34.9297 35.8061 34.957C34.0021 34.957 32.6354 33.891 31.7061 31.759C31.0501 30.1737 30.7221 28.315 30.7221 26.183C30.7221 22.9303 31.4601 20.0467 32.9361 17.532C34.7128 14.58 37.1318 13.0903 40.1931 13.063ZM35.8061 26.183C35.7788 26.2923 35.7514 26.3743 35.7241 26.429C35.7241 26.4563 35.6011 26.675 35.3551 27.085C35.1091 27.4677 34.9861 27.823 34.9861 28.151C34.9861 28.6703 35.2594 29.2307 35.8061 29.832L36.9541 30.447C37.2821 30.611 37.8014 30.7067 38.5121 30.734L39.8241 30.611C40.4801 30.5563 41.4231 29.791 42.6531 28.315C43.9104 26.839 44.5528 25.158 44.5801 23.272C44.5801 21.8507 44.1974 20.5387 43.4321 19.336C42.5301 17.9693 41.3958 17.286 40.0291 17.286L39.4961 17.327C38.2934 17.327 37.3778 18.229 36.7491 20.033C36.1751 21.7277 35.8608 23.7777 35.8061 26.183ZM59.9557 5.97C60.4477 5.642 60.8304 5.396 61.1037 5.232L61.8417 5.068L62.5387 5.191L63.4407 5.806L64.9167 7.938C67.0761 10.9447 67.9917 15.523 67.6637 21.673C67.2537 28.643 65.0124 31.3763 60.9397 29.873L60.1607 29.053C59.7781 27.249 58.7121 25.6773 56.9627 24.338C56.7987 24.6933 56.7031 25.0897 56.6757 25.527L56.5527 25.814C56.5801 26.306 56.4844 26.8937 56.2657 27.577L55.9787 29.504L55.7327 30.488L55.1997 31.636L54.8307 32.169C54.0927 33.6997 53.1361 34.424 51.9607 34.342C50.4027 34.178 49.5007 33.358 49.2547 31.882C49.2821 31.144 49.4871 30.3377 49.8697 29.463L50.1977 28.643C50.2251 28.2057 50.3617 27.659 50.6077 27.003C52.3571 23.3677 53.8057 20.812 54.9537 19.336C57.4137 18.68 59.7371 19.254 61.9237 21.058C64.3564 19.3907 64.0011 15.646 60.8577 9.824L59.5457 7.364L59.9557 5.97ZM91.5498 12.735L92.5748 17.368L92.2468 24.994C91.7548 28.0007 90.5384 30.4607 88.5978 32.374C86.3838 34.5607 83.5274 35.654 80.0288 35.654C75.9561 35.654 73.0041 34.424 71.1728 31.964C70.0248 30.406 69.0681 27.6453 68.3028 23.682L67.5238 13.063C67.4964 12.5983 67.7698 12.243 68.3438 11.997C68.6991 11.8877 68.9314 11.8193 69.0408 11.792C69.0408 11.792 69.3824 11.7237 70.0658 11.587L71.4598 11.833C71.9244 11.9697 72.3071 12.1883 72.6078 12.489L72.4438 15.728L72.2798 19.951C72.2251 22.0557 72.4028 24.1193 72.8128 26.142C73.1681 27.9733 73.8378 29.463 74.8218 30.611C75.8331 31.759 77.3091 32.3467 79.2498 32.374C80.8351 32.374 82.1198 32.0323 83.1038 31.349C83.7051 30.9117 84.5388 29.9823 85.6048 28.561C87.2448 26.4017 88.0648 23.6273 88.0648 20.238C88.0648 18.4613 87.8598 16.7803 87.4498 15.195C87.2858 14.4843 87.0944 13.8147 86.8758 13.186L87.3268 12.448C87.5454 12.2567 87.9281 12.1337 88.4748 12.079L89.7048 11.997C90.3608 11.997 90.7844 12.079 90.9758 12.243L91.5498 12.735ZM100.113 10.029C100.523 8.00633 101.397 6.55766 102.737 5.683C104.267 5.355 104.937 6.503 104.746 9.127L107.657 8.594L107.862 8.512L108.559 8.348H108.969C109.215 8.594 109.42 8.90833 109.584 9.291C109.775 10.603 109.529 11.8877 108.846 13.145C108.326 13.4457 107.657 13.678 106.837 13.842C106.181 14.006 105.648 14.088 105.238 14.088C105.101 14.1427 104.91 14.17 104.664 14.17L104.459 14.416C104.513 14.826 104.5 15.2907 104.418 15.81C104.445 16.138 104.418 16.507 104.336 16.917V17.696C104.281 18.024 104.254 18.4203 104.254 18.885L104.131 19.992V20.771C104.049 21.4543 104.008 22.0283 104.008 22.493L103.926 22.903L103.844 24.01L103.803 24.461C103.803 24.9803 103.721 25.691 103.557 26.593C103.529 27.577 103.379 28.3697 103.106 28.971C101.848 31.6223 100.509 32.292 99.0877 30.98C98.951 30.5153 98.8827 29.996 98.8827 29.422C98.9647 29.012 99.0057 28.4927 99.0057 27.864L99.0877 27.29C99.115 26.7707 99.156 26.3333 99.2107 25.978V25.65L99.4157 22.985C99.525 22.5477 99.5797 21.9873 99.5797 21.304L99.6207 20.853V19.992L99.7027 19.746V19.131L99.7847 18.803V18.27C99.812 17.8327 99.8257 17.2723 99.8257 16.589C99.8804 16.1243 99.9077 15.5503 99.9077 14.867L99.9897 13.35C98.8144 13.5687 97.844 13.555 97.0787 13.309L94.9877 13.514L93.9627 13.309L93.2657 13.022L92.7327 12.981L92.2407 12.612C92.0494 12.4753 91.858 12.079 91.6667 11.423C91.7214 10.849 91.9264 10.357 92.2817 9.947C92.555 9.50967 92.8284 9.25 93.1017 9.168L93.7577 9.209L94.4547 9.496L95.2747 9.742L100.113 10.029ZM117.097 8.676L118.819 8.635C121.06 9.23633 122.55 11.4777 123.288 15.359C126.158 10.029 129.26 8.90833 132.595 11.997C132.786 12.489 132.882 13.063 132.882 13.719C132.964 14.1017 132.704 15.2223 132.103 17.081L132.144 20.976L132.349 23.887L132.185 24.871L132.062 25.404L131.939 26.716L131.775 27.618L131.652 28.069L131.693 29.217L131.775 30.898C127.265 31.8547 125.461 31.0893 126.363 28.602C126.8 27.4813 126.95 26.7433 126.814 26.388L126.978 25.076L127.388 21.714L127.019 19.787L126.937 18.639L126.978 18.352L126.814 18.065C126.677 18.475 126.39 18.9943 125.953 19.623L125.666 20.033C126.021 21.4543 124.928 22.3017 122.386 22.575L121.648 22.493L120.869 22.165C120.049 21.2357 119.434 20.0603 119.024 18.639C118.75 18.147 118.504 17.4637 118.286 16.589L117.917 15.564L117.876 15.318C117.575 14.4433 117.069 13.6097 116.359 12.817C116.085 13.2817 115.894 13.842 115.785 14.498L115.662 14.744C115.634 15.0447 115.539 15.4 115.375 15.81L115.129 17.573L115.006 18.106L114.555 23.149L114.637 23.518L114.514 24.83L114.35 25.363C113.502 27.6863 111.903 28.807 109.553 28.725C109.17 28.5337 108.869 28.1783 108.651 27.659C108.541 27.0577 108.555 26.306 108.692 25.404L109.102 20.976L109.717 19.172C110.099 18.352 110.14 17.7233 109.84 17.286V16.302L110.414 15.441V14.949L110.496 14.129V13.76L111.89 11.915L112.956 10.726L114.145 9.619L115.293 8.963L117.097 8.676ZM138.432 33.112C137.639 33.3853 136.928 33.6723 136.3 33.973C135.698 34.2737 135.138 34.4103 134.619 34.383C133.853 34.301 133.266 34.0003 132.856 33.481C132.446 32.9343 132.336 32.251 132.528 31.431C132.61 31.103 132.746 30.7887 132.938 30.488C133.348 22.1513 134.345 17.2313 135.931 15.728C135.712 12.0927 135.78 9.87867 136.136 9.086C137.147 7.58267 138.199 6.872 139.293 6.954C139.785 7.00867 140.222 7.51433 140.605 8.471C141.069 9.701 141.056 11.2317 140.564 13.063C140.427 13.6643 140.222 14.293 139.949 14.949L138.104 30.119L138.432 33.112ZM150.156 5.97C150.648 5.642 151.03 5.396 151.304 5.232L152.042 5.068L152.739 5.191L153.641 5.806L155.117 7.938C157.276 10.9447 158.192 15.523 157.864 21.673C157.454 28.643 155.212 31.3763 151.14 29.873L150.361 29.053C149.978 27.249 148.912 25.6773 147.163 24.338C146.999 24.6933 146.903 25.0897 146.876 25.527L146.753 25.814C146.78 26.306 146.684 26.8937 146.466 27.577L146.179 29.504L145.933 30.488L145.4 31.636L145.031 32.169C144.293 33.6997 143.336 34.424 142.161 34.342C140.603 34.178 139.701 33.358 139.455 31.882C139.482 31.144 139.687 30.3377 140.07 29.463L140.398 28.643C140.425 28.2057 140.562 27.659 140.808 27.003C142.557 23.3677 144.006 20.812 145.154 19.336C147.614 18.68 149.937 19.254 152.124 21.058C154.556 19.3907 154.201 15.646 151.058 9.824L149.746 7.364L150.156 5.97ZM158.093 14.088C159.405 14.1427 162.316 14.1153 166.826 14.006C171.226 13.8967 174.301 14.1153 176.051 14.662C179.139 15.6187 180.957 17.7917 181.504 21.181C181.914 23.805 181.914 25.978 181.504 27.7C181.012 29.8047 179.877 31.6497 178.101 33.235C176.789 34.4103 173.673 36.802 168.753 40.41L162.398 41.435L161.414 37.95C161.086 36.8293 160.84 35.736 160.676 34.67C160.566 33.9047 160.361 32.7977 160.061 31.349C159.76 29.873 159.541 28.766 159.405 28.028C159.241 26.88 159.118 26.0053 159.036 25.404L158.503 20.976C158.339 19.91 158.229 18.762 158.175 17.532C158.147 16.794 158.12 15.646 158.093 14.088ZM162.767 18.024C162.903 18.8167 163.04 19.9373 163.177 21.386C163.286 22.9167 163.395 24.0237 163.505 24.707C163.669 26.1283 163.901 28.274 164.202 31.144C164.311 32.0733 164.502 33.1393 164.776 34.342C164.994 35.408 165.295 36.4877 165.678 37.581L170.147 35.9L175.928 30.406C176.775 29.3947 177.226 26.5383 177.281 21.837C177.117 20.7163 176.338 19.91 174.944 19.418C174.096 19.1173 172.675 18.885 170.68 18.721C168.684 18.557 167.372 18.3793 166.744 18.188L162.767 18.024Z" fill="black"/>
<path d="M8.51356 7.47025C9.89489 7.76625 12.9782 8.23492 17.7636 8.87625C22.4256 9.49292 25.6322 10.2329 27.3836 11.0963C30.4916 12.6256 32.0456 15.2156 32.0456 18.8663C32.0456 21.7029 31.6879 24.0093 30.9726 25.7853C30.1092 27.9066 28.6046 29.6579 26.4586 31.0393C24.8799 32.0506 21.1799 34.0609 15.3586 37.0703H8.51356L8.03256 33.2223C7.88456 31.9889 7.81056 30.7926 7.81056 29.6333C7.81056 28.8193 7.77356 27.6229 7.69956 26.0443C7.62556 24.4409 7.58856 23.2323 7.58856 22.4183C7.58856 21.1849 7.60089 20.2476 7.62556 19.6063L7.81056 14.8333C7.81056 13.6739 7.88456 12.4406 8.03256 11.1333C8.13123 10.3439 8.29156 9.12292 8.51356 7.47025ZM12.8056 12.4283C12.8056 13.2669 12.7562 14.4633 12.6576 16.0173C12.5342 17.6699 12.4726 18.8663 12.4726 19.6063C12.3986 21.1356 12.2876 23.4419 12.1396 26.5253C12.0902 27.5119 12.1149 28.6589 12.2136 29.9663C12.2382 31.1503 12.3616 32.3466 12.5836 33.5553L17.6156 32.5193L24.6456 27.6723C25.6816 26.7596 26.6312 23.8243 27.4946 18.8663C27.4946 17.6576 26.8039 16.6833 25.4226 15.9433C24.5839 15.4746 23.1162 14.9936 21.0196 14.5003C18.9476 13.9823 17.6032 13.5629 16.9866 13.2422L12.8056 12.4283ZM42.3145 12.7613C44.2632 12.7613 46.0638 13.8959 47.7165 16.1653C49.3692 18.4099 50.1955 20.9999 50.1955 23.9353C50.2202 26.3773 48.8142 28.4739 45.9775 30.2253C43.4862 31.7299 40.9455 32.4946 38.3555 32.5193C36.7275 32.5193 35.4942 31.5573 34.6555 29.6333C34.0635 28.2026 33.7675 26.5253 33.7675 24.6013C33.7675 21.6659 34.4335 19.0636 35.7655 16.7943C37.3688 14.1303 39.5518 12.7859 42.3145 12.7613ZM38.3555 24.6013C38.3308 24.6999 38.3062 24.7739 38.2815 24.8233C38.2815 24.8479 38.1705 25.0453 37.9485 25.4153C37.7265 25.7606 37.6155 26.0813 37.6155 26.3773C37.6155 26.8459 37.8622 27.3516 38.3555 27.8943L39.3915 28.4493C39.6875 28.5973 40.1562 28.6836 40.7975 28.7083L41.9815 28.5973C42.5735 28.5479 43.4245 27.8573 44.5345 26.5253C45.6692 25.1933 46.2488 23.6763 46.2735 21.9743C46.2735 20.6916 45.9282 19.5076 45.2375 18.4223C44.4235 17.1889 43.3998 16.5723 42.1665 16.5723L41.6855 16.6093C40.6002 16.6093 39.7738 17.4233 39.2065 19.0513C38.6885 20.5806 38.4048 22.4306 38.3555 24.6013ZM61.9991 6.36025C62.4431 6.06425 62.7884 5.84225 63.0351 5.69425L63.7011 5.54625L64.3301 5.65725L65.1441 6.21225L66.4761 8.13625C68.4247 10.8496 69.2511 14.9812 68.9551 20.5313C68.5851 26.8213 66.5624 29.2879 62.8871 27.9313L62.1841 27.1913C61.8387 25.5633 60.8767 24.1449 59.2981 22.9363C59.1501 23.2569 59.0637 23.6146 59.0391 24.0093L58.9281 24.2683C58.9527 24.7123 58.8664 25.2426 58.6691 25.8593L58.4101 27.5983L58.1881 28.4863L57.7071 29.5223L57.3741 30.0033C56.7081 31.3846 55.8447 32.0383 54.7841 31.9643C53.3781 31.8163 52.5641 31.0763 52.3421 29.7443C52.3667 29.0783 52.5517 28.3506 52.8971 27.5613L53.1931 26.8213C53.2177 26.4266 53.3411 25.9333 53.5631 25.3413C55.1417 22.0606 56.4491 19.7543 57.4851 18.4223C59.7051 17.8303 61.8017 18.3483 63.7751 19.9763C65.9704 18.4716 65.6497 15.0923 62.8131 9.83825L61.6291 7.61825L61.9991 6.36025ZM92.3608 12.4653L93.2858 16.6462L92.9898 23.5283C92.5458 26.2416 91.4481 28.4616 89.6968 30.1883C87.6988 32.1616 85.1211 33.1483 81.9638 33.1483C78.2884 33.1483 75.6244 32.0383 73.9718 29.8183C72.9358 28.4123 72.0724 25.9209 71.3818 22.3443L70.6788 12.7613C70.6541 12.3419 70.9008 12.0213 71.4188 11.7993C71.7394 11.7006 71.9491 11.6389 72.0478 11.6143C72.0478 11.6143 72.3561 11.5526 72.9728 11.4293L74.2308 11.6513C74.6501 11.7746 74.9954 11.9719 75.2668 12.2433L75.1188 15.1663L74.9708 18.9773C74.9214 20.8766 75.0818 22.7389 75.4518 24.5643C75.7724 26.2169 76.3768 27.5613 77.2648 28.5973C78.1774 29.6333 79.5094 30.1636 81.2608 30.1883C82.6914 30.1883 83.8508 29.8799 84.7388 29.2633C85.2814 28.8686 86.0338 28.0299 86.9958 26.7473C88.4758 24.7986 89.2158 22.2949 89.2158 19.2363C89.2158 17.6329 89.0308 16.1159 88.6608 14.6853C88.5128 14.0439 88.3401 13.4396 88.1428 12.8722L88.5498 12.2062C88.7471 12.0336 89.0924 11.9226 89.5858 11.8732L90.6958 11.7993C91.2878 11.7993 91.6701 11.8733 91.8428 12.0212L92.3608 12.4653ZM101.938 10.0233C102.308 8.19792 103.098 6.89058 104.306 6.10125C105.688 5.80525 106.292 6.84125 106.119 9.20925L108.746 8.72825L108.931 8.65425L109.56 8.50625H109.93C110.152 8.72825 110.337 9.01192 110.485 9.35725C110.658 10.5413 110.436 11.7006 109.819 12.8353C109.351 13.1066 108.746 13.3163 108.006 13.4643C107.414 13.6123 106.933 13.6863 106.563 13.6863C106.44 13.7356 106.267 13.7602 106.045 13.7602L105.86 13.9823C105.91 14.3523 105.897 14.7716 105.823 15.2403C105.848 15.5363 105.823 15.8693 105.749 16.2393V16.9423C105.7 17.2383 105.675 17.5959 105.675 18.0152L105.564 19.0143V19.7173C105.49 20.3339 105.453 20.8519 105.453 21.2713L105.379 21.6413L105.305 22.6403L105.268 23.0473C105.268 23.5159 105.194 24.1573 105.046 24.9713C105.022 25.8593 104.886 26.5746 104.639 27.1173C103.505 29.5099 102.296 30.1143 101.013 28.9303C100.89 28.5109 100.828 28.0423 100.828 27.5243C100.902 27.1543 100.939 26.6856 100.939 26.1183L101.013 25.6003C101.038 25.1316 101.075 24.7369 101.124 24.4163V24.1203L101.309 21.7153C101.408 21.3206 101.457 20.8149 101.457 20.1983L101.494 19.7913V19.0143L101.568 18.7923V18.2373L101.642 17.9413V17.4603C101.667 17.0656 101.679 16.5599 101.679 15.9433C101.729 15.5239 101.753 15.0059 101.753 14.3893L101.827 13.0203C100.767 13.2176 99.8909 13.2053 99.2003 12.9833L97.3133 13.1683L96.3883 12.9833L95.7593 12.7242L95.2783 12.6873L94.8343 12.3542C94.6616 12.2309 94.4889 11.8733 94.3163 11.2813C94.3656 10.7632 94.5506 10.3192 94.8713 9.94925C95.1179 9.55458 95.3646 9.32025 95.6113 9.24625L96.2033 9.28325L96.8323 9.54225L97.5723 9.76425L101.938 10.0233ZM119.115 8.80225L120.669 8.76525C122.692 9.30792 124.036 11.3306 124.702 14.8333C127.292 10.0232 130.092 9.01192 133.101 11.7993C133.274 12.2433 133.36 12.7613 133.36 13.3533C133.434 13.6986 133.2 14.7099 132.657 16.3873L132.694 19.9023L132.879 22.5293L132.731 23.4173L132.62 23.8983L132.509 25.0823L132.361 25.8963L132.25 26.3033L132.287 27.3393L132.361 28.8563C128.291 29.7196 126.663 29.0289 127.477 26.7843C127.872 25.7729 128.008 25.1069 127.884 24.7863L128.032 23.6023L128.402 20.5683L128.069 18.8293L127.995 17.7933L128.032 17.5343L127.884 17.2753C127.761 17.6453 127.502 18.1139 127.107 18.6813L126.848 19.0513C127.169 20.3339 126.182 21.0986 123.888 21.3453L123.222 21.2713L122.519 20.9753C121.779 20.1366 121.224 19.0759 120.854 17.7933C120.608 17.3493 120.386 16.7326 120.188 15.9433L119.855 15.0183L119.818 14.7962C119.547 14.0069 119.091 13.2546 118.449 12.5392C118.203 12.9586 118.03 13.4643 117.931 14.0563L117.82 14.2782C117.796 14.5496 117.709 14.8703 117.561 15.2403L117.339 16.8312L117.228 17.3123L116.821 21.8633L116.895 22.1963L116.784 23.3803L116.636 23.8613C115.872 25.9579 114.429 26.9693 112.307 26.8953C111.962 26.7226 111.691 26.4019 111.493 25.9333C111.395 25.3906 111.407 24.7123 111.53 23.8983L111.9 19.9023L112.455 18.2743C112.801 17.5343 112.838 16.9669 112.566 16.5723V15.6843L113.084 14.9073V14.4633L113.158 13.7232V13.3902L114.416 11.7252L115.378 10.6522L116.451 9.65325L117.487 9.06125L119.115 8.80225ZM140.219 30.8543C139.503 31.1009 138.862 31.3599 138.295 31.6313C137.752 31.9026 137.246 32.0259 136.778 32.0013C136.087 31.9273 135.557 31.6559 135.187 31.1873C134.817 30.6939 134.718 30.0773 134.891 29.3373C134.965 29.0413 135.088 28.7576 135.261 28.4863C135.631 20.9629 136.531 16.5229 137.962 15.1663C137.764 11.8856 137.826 9.88758 138.147 9.17225C139.059 7.81558 140.009 7.17425 140.996 7.24825C141.44 7.29758 141.834 7.75392 142.18 8.61725C142.599 9.72725 142.587 11.1086 142.143 12.7613C142.019 13.3039 141.834 13.8713 141.588 14.4633L139.923 28.1533L140.219 30.8543ZM152.649 6.36025C153.093 6.06425 153.438 5.84225 153.685 5.69425L154.351 5.54625L154.98 5.65725L155.794 6.21225L157.126 8.13625C159.075 10.8496 159.901 14.9812 159.605 20.5313C159.235 26.8213 157.212 29.2879 153.537 27.9313L152.834 27.1913C152.489 25.5633 151.527 24.1449 149.948 22.9363C149.8 23.2569 149.714 23.6146 149.689 24.0093L149.578 24.2683C149.603 24.7123 149.516 25.2426 149.319 25.8593L149.06 27.5983L148.838 28.4863L148.357 29.5223L148.024 30.0033C147.358 31.3846 146.495 32.0383 145.434 31.9643C144.028 31.8163 143.214 31.0763 142.992 29.7443C143.017 29.0783 143.202 28.3506 143.547 27.5613L143.843 26.8213C143.868 26.4266 143.991 25.9333 144.213 25.3413C145.792 22.0606 147.099 19.7543 148.135 18.4223C150.355 17.8303 152.452 18.3483 154.425 19.9763C156.62 18.4716 156.3 15.0923 153.463 9.83825L152.279 7.61825L152.649 6.36025ZM161.662 13.6863C162.846 13.7356 165.473 13.7109 169.543 13.6123C173.514 13.5136 176.289 13.7109 177.868 14.2043C180.655 15.0676 182.295 17.0286 182.789 20.0873C183.159 22.4553 183.159 24.4163 182.789 25.9703C182.345 27.8696 181.321 29.5346 179.718 30.9653C178.534 32.0259 175.722 34.1843 171.282 37.4403L165.547 38.3653L164.659 35.2203C164.363 34.2089 164.141 33.2223 163.993 32.2603C163.894 31.5696 163.709 30.5706 163.438 29.2633C163.166 27.9313 162.969 26.9323 162.846 26.2663C162.698 25.2303 162.587 24.4409 162.513 23.8983L162.032 19.9023C161.884 18.9403 161.785 17.9043 161.736 16.7943C161.711 16.1282 161.686 15.0922 161.662 13.6863ZM165.88 17.2383C166.003 17.9536 166.126 18.9649 166.25 20.2723C166.348 21.6536 166.447 22.6526 166.546 23.2693C166.694 24.5519 166.903 26.4883 167.175 29.0783C167.273 29.9169 167.446 30.8789 167.693 31.9643C167.89 32.9263 168.161 33.9006 168.507 34.8873L172.54 33.3703L177.757 28.4123C178.521 27.4996 178.928 24.9219 178.978 20.6793C178.83 19.6679 178.127 18.9403 176.869 18.4963C176.104 18.2249 174.821 18.0153 173.021 17.8672C171.22 17.7192 170.036 17.5589 169.469 17.3863L165.88 17.2383Z" fill="white"/>
</svg>
